<?xml version="1.0" encoding="utf-8"?>
<!-- Generator: Adobe Illustrator 16.0.0, SVG Export Plug-In . SVG Version: 6.00 Build 0)  -->
<!DOCTYPE svg PUBLIC "-//W3C//DTD SVG 1.1//EN" "http://www.w3.org/Graphics/SVG/1.1/DTD/svg11.dtd">
<svg version="1.1" xmlns="http://www.w3.org/2000/svg" xmlns:xlink="http://www.w3.org/1999/xlink" x="0px" y="0px" width="100px"
	 height="100px" viewBox="0 0 100 100" enable-background="new 0 0 100 100" xml:space="preserve">
<g id="fondo">
	<path fill="none" stroke="#1B1464" stroke-width="2" stroke-miterlimit="10" d="M99,87.076C99,93.662,93.822,99,87.334,99H12.927
		C6.438,99,1,93.662,1,87.076V12.547C1,5.961,6.438,1,12.927,1h74.407C93.822,1,99,5.961,99,12.547V87.076z"/>
</g>
<g id="Dibujo">
	<path fill="#754C24" stroke="#000000" stroke-miterlimit="10" d="M76.5,82.3c0,3.977-3.224,7.2-7.199,7.2H31.699
		c-3.977,0-7.199-3.224-7.199-7.2V34.7c0-3.977,3.223-7.2,7.199-7.2h37.602c3.976,0,7.199,3.224,7.199,7.2V82.3z"/>
	<rect x="32" y="35" fill="#F2F2F2" width="39" height="47"/>
	<path fill="#754C24" stroke="#000000" stroke-miterlimit="10" d="M60.426,45.55c-1.762,0-3.775,5.95-3.775,5.95h7.549
		C64.199,51.5,62.187,45.55,60.426,45.55z"/>
	
		<ellipse fill="#C69C6D" stroke="#000000" stroke-width="0.5" stroke-miterlimit="10" cx="60.476" cy="42.525" rx="3.825" ry="3.375"/>
	<line fill="none" stroke="#000000" stroke-miterlimit="10" x1="35" y1="49.5" x2="49" y2="49.5"/>
	<line fill="none" stroke="#000000" stroke-miterlimit="10" x1="35" y1="39.5" x2="49" y2="39.5"/>
	<line fill="none" stroke="#000000" stroke-miterlimit="10" x1="35" y1="43.5" x2="49" y2="43.5"/>
	<line fill="none" stroke="#000000" stroke-miterlimit="10" x1="35" y1="46.5" x2="49" y2="46.5"/>
	<g>
		<g>
			<path d="M58.912,42.975c1.935,0,1.935-3,0-3S56.978,42.975,58.912,42.975L58.912,42.975z"/>
		</g>
	</g>
	<g>
		<g>
			<path d="M61.912,42.975c1.935,0,1.935-3,0-3S59.978,42.975,61.912,42.975L61.912,42.975z"/>
		</g>
	</g>
	<line fill="none" stroke="#000000" stroke-miterlimit="10" x1="35" y1="56.5" x2="67" y2="56.5"/>
	<line fill="none" stroke="#000000" stroke-miterlimit="10" x1="35" y1="59.5" x2="67" y2="59.5"/>
	<line fill="none" stroke="#000000" stroke-miterlimit="10" x1="35" y1="62.5" x2="67" y2="62.5"/>
	<line fill="none" stroke="#000000" stroke-miterlimit="10" x1="35" y1="65.5" x2="67" y2="65.5"/>
	<line fill="none" stroke="#000000" stroke-miterlimit="10" x1="35" y1="68.5" x2="67" y2="68.5"/>
	<line fill="none" stroke="#000000" stroke-miterlimit="10" x1="35" y1="71.5" x2="67" y2="71.5"/>
	<path fill="none" stroke="#000000" stroke-miterlimit="10" d="M67.199,74.7"/>
	<path fill="none" stroke="#000000" stroke-miterlimit="10" d="M34.8,74.7"/>
	<line fill="none" stroke="#000000" stroke-miterlimit="10" x1="35" y1="77.5" x2="50" y2="77.5"/>
	<line fill="none" stroke="#000000" stroke-miterlimit="10" x1="52" y1="77.5" x2="67" y2="77.5"/>
	<path fill="none" stroke="#0000FF" stroke-width="0.5" stroke-miterlimit="10" d="M35.625,77.047
		c0.127,0.021,0.568-0.133,0.646-0.26c0.084-0.137-0.028-0.455-0.041-0.596c-0.023-0.252-0.086-0.674,0.117-0.851
		c0.648-0.563,0.759,0.804,0.926,1.108c0.068,0.123,0.215,0.318,0.345,0.369c0.077,0.029,0.577,0.052,0.655,0
		c0.277-0.188-0.041-0.732,0.002-0.998c0.043-0.272,0.43-0.689,0.736-0.544c0.247,0.118,0.267,0.563,0.229,0.792
		c0.25,0.159,0.479,0.264,0.778,0.105c0.478-0.253-0.157-0.623,0.162-0.952c0.487-0.505,0.621,0.708,0.619,1.007
		c-0.003,0.358-0.215,0.785,0.215,0.952c0.195,0.076,0.808,0.157,1.005,0.057c0.244-0.124,0.232-0.464,0.25-0.702
		c0.024-0.324,0.117-0.783,0.58-0.666c0.296,0.076,0.747,1.109,1.1,0.902"/>
	<path fill="none" stroke="#0000FF" stroke-width="0.5" stroke-miterlimit="10" d="M52.626,77.07c0.423,0.02,0.771-0.211,0.864-0.65
		c0.029-0.133,0.03-0.32,0.008-0.455c-0.021-0.128-0.166-0.296-0.1-0.436c0.066-0.137,0.711-0.219,0.813-0.093
		c0.084,0.106,0.013,0.526,0.014,0.641c0.002,0.419,0.036,0.935,0.412,1.216c0.199,0.148,0.543,0.174,0.708-0.063
		c0.192-0.275,0.003-0.679-0.101-0.941c-0.099-0.25-0.323-0.619-0.301-0.896c0.013-0.174,0.278-0.465,0.482-0.426
		c0.221,0.043,0.387,0.773,0.449,0.935c0.164,0.423,0.357,0.829,0.54,1.244c0.075,0.17,0.169,0.542,0.318,0.675
		c0.66,0.59,2.351-0.481,2.426-1.234c0.041-0.408-0.305-0.68-0.479-1.014c-0.155-0.301-0.1-0.523-0.161-0.834
		c-0.063-0.322-0.367-0.609-0.573-0.844c-0.225-0.258-0.259-0.32-0.582-0.323c-0.422-0.005-0.805,0.023-1.195,0.212
		c-0.25,0.121-0.924,0.48-0.922,0.82c0,0.291,0.755,0.416,0.939,0.471c1.25,0.376,2.441,0.475,3.747,0.473
		c0.419,0,0.798-0.016,1.202-0.113c0.137-0.033,0.229-0.063,0.365-0.063c0.416,0.002,0.73,0.248,0.922,0.607
		c0.125,0.238,0.168,0.182-0.074,0.338c-0.208,0.135-0.527,0.191-0.766,0.252c-0.359,0.092-0.725,0.162-1.096,0.101
		c-0.574-0.096-1.047-0.504-1.616-0.641c0.445-0.277,1.448-0.135,1.959-0.104c0.831,0.048,1.577,0.471,2.405,0.501
		c0.293,0.011,0.742-0.001,0.991-0.179"/>
	<g>
		<g>
			<g>
				<g>
					<g>
						<path fill="#C94248" d="M51.866,76.426c0.043,0.011,0.142,0.004,0.119-0.022l-0.167-0.017L51.866,76.426z"/>
						<path fill="#C94248" d="M52.154,76.235c-0.083-0.029-0.228-0.054-0.377-0.023c0.162,0.02,0.097,0.03,0.289,0.055
							c0.021,0.026-0.049,0.05-0.11,0.047c0.044,0.009-0.032,0.042,0.073,0.055c0.125-0.038,0.125-0.087,0.016-0.129
							C52.08,76.228,52.124,76.234,52.154,76.235z"/>
						<path fill="#C94248" d="M51.071,73.643l0.002,0.028C51.076,73.658,51.075,73.649,51.071,73.643z"/>
						<path fill="#C94248" d="M49.355,72.901c0.015-0.003,0.022-0.019,0.024-0.033C49.365,72.878,49.353,72.887,49.355,72.901z"/>
						<path fill="#C94248" d="M49.022,72.706c0.009,0.004,0.014,0.006,0.021,0.009C49.035,72.7,49.027,72.692,49.022,72.706z"/>
						<path fill="#C94248" d="M51.071,73.643l-0.007-0.074C51.029,73.609,51.06,73.617,51.071,73.643z"/>
						<path fill="#C94248" d="M51.725,75.922c0.009,0.007,0.024,0.012,0.045,0.015l-0.02-0.018L51.725,75.922z"/>
						<path fill="#C94248" d="M51.757,74.136l0.01,0.012c0.017-0.009,0.037-0.02,0.061-0.031L51.757,74.136z"/>
						<path fill="#C94248" d="M52.138,74.667c-0.002-0.017-0.128,0.046-0.184,0.071c0.054-0.021,0.084-0.024,0.099-0.019
							C52.077,74.707,52.104,74.69,52.138,74.667z"/>
						<path fill="#C94248" d="M52.261,75.69l0.024,0.013L52.261,75.69z"/>
						<path fill="#C94248" d="M51.465,73.766c0.013-0.017,0.023-0.031,0.03-0.04C51.483,73.738,51.474,73.752,51.465,73.766z"/>
						<path fill="#C94248" d="M51.482,76.971c0.01,0.002,0.016,0.003,0.024,0.005C51.494,76.971,51.484,76.968,51.482,76.971z"/>
						<polygon fill="#C94248" points="52.235,76.426 52.242,76.436 52.32,76.438 						"/>
						<path fill="#C94248" d="M48.353,72.6l0.003,0.002C48.37,72.582,48.36,72.586,48.353,72.6z"/>
						<path fill="#C94248" d="M45.547,77.207c0.105-0.086,0.187,0.067,0.297-0.052C45.791,77.177,45.609,77.112,45.547,77.207z"/>
						<path fill="#C94248" d="M51.742,75.905c-0.003-0.007-0.005-0.014-0.004-0.021C51.734,75.895,51.735,75.901,51.742,75.905z"/>
						<polygon fill="#C94248" points="45.844,77.155 45.845,77.155 45.855,77.144 						"/>
						<path fill="#C94248" d="M47.013,73.3c0.017,0.018,0.033,0.029,0.048,0.04C47.052,73.328,47.039,73.316,47.013,73.3z"/>
						<path fill="#C94248" d="M48.068,72.987l-0.031-0.009C48.051,72.987,48.061,72.988,48.068,72.987z"/>
						<path fill="#C94248" d="M46.717,73.816c-0.018,0.002-0.036-0.008-0.037,0.018l0.017,0.009
							C46.688,73.824,46.689,73.812,46.717,73.816z"/>
						<polygon fill="#C94248" points="46.356,74.252 46.386,74.261 46.391,74.242 						"/>
						<path fill="#C94248" d="M51.018,78.105c0.035,0.02,0.074,0.041,0.111,0.063C51.047,78.111,51.056,78.042,51.018,78.105z"/>
						<path fill="#C94248" d="M51.803,75.908c-0.035,0.003-0.053,0.002-0.061-0.003l0.008,0.014
							C51.771,75.916,51.79,75.913,51.803,75.908z"/>
						<path fill="#C94248" d="M47.491,74.609c-0.001-0.001-0.062,0.026-0.059,0.029C47.451,74.633,47.473,74.623,47.491,74.609z"/>
						<path fill="#C94248" d="M48.428,78.958l0.019-0.012C48.443,78.942,48.437,78.944,48.428,78.958z"/>
						<path fill="#C94248" d="M47.334,74.8c-0.045-0.022-0.076-0.03-0.098-0.032c0.007,0.009,0.013,0.016,0.024,0.028L47.334,74.8z"
							/>
						<path fill="#C94248" d="M51.131,78.168h-0.002H51.131z"/>
						<path fill="#C94248" d="M51.084,77.634c-0.03,0.049,0.146,0.112,0.231,0.176c0.011,0.095-0.134-0.037-0.226-0.063
							c0.021,0.062,0.154,0.189,0.124,0.212c-0.027-0.015-0.041-0.016-0.067-0.043c0.09,0.121-0.085,0.116,0.025,0.274
							c-0.016-0.007-0.029-0.014-0.041-0.022c0.079,0.05,0.154,0.105,0.206,0.148c-0.017,0.026,0.054,0.12-0.047,0.054
							c0.015-0.014-0.022-0.045-0.047-0.076l0.021,0.06c-0.153-0.087-0.02-0.073-0.121-0.152c0.009,0.081,0.071,0.233,0.004,0.24
							c-0.132-0.106,0.025-0.125-0.127-0.175l0.093-0.015c-0.238-0.129,0.04-0.021-0.21-0.165c-0.089,0.034,0.007,0.134-0.083,0.169
							c0.053,0.077,0.106,0.092,0.158,0.171c0.014,0.209-0.375-0.242-0.288-0.019c0.058,0.1,0.189,0.27,0.063,0.229l-0.105-0.163
							c-0.075,0.041,0.135,0.248-0.016,0.209c-0.032-0.072,0.014-0.097-0.01-0.106c-0.136-0.081,0.035,0.114-0.001,0.146
							l-0.107-0.132c-0.056,0.073-0.084,0.22-0.162,0.303c-0.02-0.047-0.031-0.103-0.076-0.136c-0.068,0.146-0.25,0.12-0.396,0.047
							l0.005,0.152c-0.011,0.002-0.04-0.057-0.038-0.087c-0.061-0.039,0.027,0.089,0.023,0.151
							c-0.024,0.019-0.059-0.069-0.057-0.117c-0.036,0.143-0.168,0.348-0.29,0.188l0.01-0.045c-0.076-0.053-0.036,0.306-0.123,0.177
							l0.01-0.027c-0.158-0.045-0.338,0.115-0.443-0.136c-0.039,0.208-0.137-0.109-0.182,0.183c-0.07-0.154-0.037-0.204-0.135-0.31
							c-0.027-0.017-0.083,0.166-0.131,0.184l0.036-0.15l-0.093,0.14l0.022-0.188l-0.046,0.026c0.011,0.014,0.01,0.077-0.004,0.119
							c-0.079,0.047-0.107-0.148-0.079-0.222l-0.177,0.081c0.027-0.057,0.057-0.069,0.089-0.101c-0.129,0.124,0.05-0.154-0.067-0.04
							c-0.006,0.035-0.042,0.083-0.056,0.111c0.008-0.103-0.053-0.141-0.12-0.134l0.059-0.089c-0.07-0.072-0.203-0.057-0.302-0.111
							c0.007,0.059-0.104,0.207-0.147,0.204l0.084-0.143c-0.076,0.066-0.008,0.075-0.115,0.144
							c-0.024-0.046,0.087-0.169,0.136-0.196l-0.073,0.011c0.027-0.041,0.052-0.053,0.091-0.101
							c-0.078,0.065,0.038-0.186-0.094-0.067l0.028-0.039c-0.08-0.072-0.156-0.063-0.231-0.115
							c-0.102,0.098-0.109,0.055-0.208,0.106c-0.012-0.09,0.025-0.222-0.035-0.279c-0.092-0.003-0.105,0.06-0.188,0.088
							c0.099-0.081,0.036-0.14,0.138-0.159c-0.078-0.067-0.108-0.077-0.251-0.145c-0.039,0.04-0.051,0.066-0.092,0.081
							c-0.03-0.012,0.021-0.078,0.076-0.105l0.014-0.001c-0.235-0.057,0.169-0.449-0.1-0.451l0.014,0.002l-0.165-0.07
							c0.005-0.061,0.101,0.002,0.165-0.062c-0.24-0.062-0.026-0.198-0.197-0.266c0.355-0.145-0.053-0.287,0.172-0.419l-0.088,0.012
							c-0.09-0.023,0.047-0.037,0.065-0.057c-0.069,0.005-0.077,0.033-0.127,0.018c-0.128-0.242,0.153-0.497,0.266-0.69
							c0.047-0.071-0.432-0.158-0.193-0.214l0.15,0.075c-0.145-0.232,0.102-0.338,0.045-0.557c0.029,0.026,0.073,0.049,0.065,0.063
							c0.124,0.022,0.066-0.115-0.019-0.166c0.022-0.02,0.081,0.038,0.131,0.048c0.077,0.006-0.09-0.162,0.02-0.116
							c0.018,0.007,0.028,0.029,0.033,0.041c-0.044-0.057,0.078-0.079-0.053-0.141c0.096-0.013,0.031-0.135,0.129-0.128
							c-0.099-0.124,0.126-0.041-0.034-0.191c0.172,0.152,0.202,0.026,0.16-0.074c0.039,0.057,0.079,0.026,0.133,0.104
							c0.032-0.031,0.036-0.089-0.05-0.168c0.246,0.146-0.004-0.284,0.253-0.049c0.019-0.199,0.106-0.317,0.194-0.435
							c0.107,0.199-0.116,0.092,0.014,0.29c0.049-0.134,0.024-0.343,0.159-0.358c0.041,0.012,0.025,0.099,0.034,0.138
							c0.065-0.153,0.224-0.057,0.284-0.214c0.006,0.021,0.002,0.046-0.003,0.065c0.018-0.014,0.057,0.017,0.024-0.081l-0.012,0.033
							c-0.082-0.13-0.004-0.325-0.018-0.404c0.04,0.296,0.132,0.034,0.165,0.414c0.008-0.023,0.014-0.076-0.005-0.143
							c0.025,0.013,0.04,0.05,0.038,0.133c0.06-0.08,0.012-0.176,0.085-0.183c0.009,0.049-0.002,0.069,0.002,0.127
							c0.016-0.098,0.039-0.197,0.108-0.162c0,0.03,0.013,0.067-0.005,0.069c0.098-0.025,0.158-0.276,0.287-0.196
							c-0.028,0.22,0.042,0.066,0.051,0.252c0-0.004,0.059-0.058,0.06-0.055l-0.024-0.094c0.054,0.01,0.109-0.12,0.155-0.054
							l-0.046,0.072l0.106-0.024l-0.054-0.077c0.065-0.089,0.01-0.236,0.086-0.175c-0.018,0.017,0.062,0.009,0.079,0.121h0
							c0.036-0.056,0.077-0.114,0.115-0.064c0.001,0.061-0.042,0.203-0.042,0.243c0.053-0.147,0.139-0.038,0.208-0.182
							c-0.021,0.034-0.042,0.13-0.043,0.15l0.051-0.116c0.017,0.049,0.016,0.068-0.007,0.144c0.069,0.047,0.033-0.238,0.1-0.109
							c-0.01,0.008-0.012,0.027-0.031,0.041c0.075,0.081,0.202-0.019,0.267,0.068c-0.042,0.184-0.088,0.02-0.114,0.178
							c0.124-0.006,0.328-0.128,0.414-0.017l-0.01-0.029c0.139-0.226,0.019,0.161,0.132,0.082c-0.023,0.01-0.091,0.117-0.073,0.094
							c0.045,0.081,0.184,0.016,0.334,0.031l-0.052,0.045c0.001,0.081,0.077,0.113,0.096,0.172c0.056-0.042,0.072-0.014,0.122-0.102
							c-0.14,0.392,0.4,0.06,0.249,0.409c-0.012-0.014-0.07,0.006-0.063,0.018l0.124,0.056c0.084-0.079,0.045-0.056,0.098-0.134
							c0.063-0.031,0.128-0.034,0.149-0.007c-0.098-0.001-0.146,0.115-0.183,0.172c0.026-0.024,0.063-0.041,0.09-0.064
							c-0.123,0.176,0.193-0.13,0.142,0.027l-0.053,0.031c0.047,0.009,0.134-0.01,0.144,0.031c-0.102,0.086-0.075,0.004-0.168,0.064
							c0.041,0.032,0.274-0.053,0.183,0.063c-0.043-0.001-0.059-0.029-0.1-0.029c-0.109,0.13-0.073,0.112-0.077,0.159l0.001-0.005
							l-0.023,0.11l0.027-0.04c0.334-0.112,0.115,0.084,0.36,0.062c-0.235,0.017-0.119,0.042-0.259,0.102
							c-0.027,0.038-0.056,0.086-0.099,0.097c0.13-0.017-0.059,0.094,0.132,0.071c-0.044,0.021,0.015,0.039-0.103,0.077
							c0.053,0.032,0.075-0.043,0.132-0.062c0.185,0.019-0.139,0.244,0.111,0.28c0.119,0.068,0.284,0.047,0.394,0.128
							c-0.067,0.049-0.182,0.012-0.182,0.012c-0.058,0.067-0.024,0.099,0.031,0.139c-0.043-0.002-0.078,0.016-0.13,0.039
							c0.016,0.036,0.177-0.004,0.11,0.061c-0.054-0.001-0.141,0.001-0.196-0.008c0.048,0.036,0.143,0.067,0.19,0.11
							c-0.083,0.022-0.131-0.013-0.188-0.021c0.043,0.045,0.089,0.123,0.225,0.129l0.045-0.039c0.009,0.02-0.114,0.021-0.14,0.009
							c-0.109-0.034,0.04-0.07,0.088-0.079l0.034,0.031c0.281-0.07-0.059-0.138-0.048-0.205l0.207-0.005l-0.177-0.044
							c0.052-0.025,0.165-0.06,0.199-0.028c0.097-0.073-0.082-0.031,0.02-0.1c0.016-0.008,0.026-0.008,0.035-0.005l-0.075-0.038
							c0.046,0,0.141-0.041,0.121-0.003c0.089-0.123-0.195-0.111-0.054-0.187l0.015,0.004c-0.105-0.109-0.151,0.028-0.35-0.011
							l0.34-0.18l-0.148,0.036c0.001-0.016,0.005-0.045,0.063-0.061c-0.113-0.014-0.061,0.03-0.161,0.035
							c0.114-0.112-0.113-0.144,0.099-0.248c-0.117,0.024-0.054,0.091-0.16,0.061c0.231-0.122-0.077-0.053,0.005-0.155
							c0.13-0.042,0.093,0.042,0.173-0.064c-0.222,0.065-0.011-0.13-0.075-0.16c-0.161,0.084-0.119-0.064-0.211-0.111
							c0.062-0.03,0.002-0.193-0.003-0.295l0.026-0.016c-0.159,0.094-0.183,0.008-0.25-0.017c0.088-0.066,0.128-0.084,0.188-0.087
							l-0.037-0.047c-0.055,0.025-0.091,0.03-0.131,0.015l0.115-0.076c-0.057-0.06-0.221-0.019-0.216-0.16
							c-0.096,0.087-0.212,0.3-0.338,0.289c0.047-0.05,0.129-0.135,0.17-0.138c-0.014,0.001-0.064,0.021-0.057-0.012l0.114-0.055
							c0.003-0.064-0.087,0.053-0.105,0.022c0.07-0.069,0.03-0.067,0.089-0.119c0.014-0.001-0.005,0.05,0.033,0.031
							c-0.019-0.039-0.015-0.114,0.023-0.18c-0.036,0.044-0.092,0.097-0.123,0.086c-0.063-0.046,0.061-0.104,0.059-0.173
							c-0.061,0.038-0.052-0.049-0.149,0.062c-0.018-0.016,0.024-0.07,0.043-0.107c-0.073,0.022-0.158-0.111-0.22,0.043l0.001,0.015
							l-0.009,0.001h0.001h-0.001c-0.177,0.026-0.168-0.226-0.318-0.238l0.026-0.043c-0.097,0.011-0.169-0.057-0.264,0.011
							c-0.019-0.011-0.006-0.106,0.028-0.155c-0.07,0.007-0.093,0.047-0.141-0.059c0.091-0.058,0.013-0.082,0.083-0.033
							c-0.052-0.074-0.046-0.147-0.176-0.051c0.075-0.108-0.001-0.168-0.052-0.145l0.023,0.103c-0.047,0.004-0.078-0.019-0.111-0.04
							l0.073-0.151c-0.114-0.247-0.377,0.232-0.424-0.121c-0.066,0.105,0.073,0.095,0.005,0.221
							c-0.065-0.035-0.104-0.275-0.131-0.28c-0.097-0.104-0.135,0.229-0.234,0.156c0.009,0.06,0.002,0.219-0.077,0.267
							c-0.066-0.029-0.072-0.258-0.021-0.3c0.019-0.003,0.026,0.016,0.023,0.036c0.026-0.02,0.062-0.041,0.036-0.108L49.4,72.818
							c-0.033-0.064-0.141-0.069-0.111-0.164c-0.063,0.051-0.029,0.096,0.012,0.13c-0.096-0.092-0.155-0.027-0.258-0.069
							c0.017,0.031,0.033,0.1,0.017,0.101c-0.15-0.06-0.061,0.119-0.155,0.154c-0.062-0.084,0.004-0.218-0.09-0.132
							c-0.068-0.055-0.03-0.155-0.007-0.206c-0.084,0.124-0.19-0.056-0.252-0.069l0.046-0.053c-0.028,0.031-0.054,0.034-0.08,0.036
							l0.049,0.114c-0.033-0.018-0.059-0.015-0.067-0.063c-0.017,0.08,0.056,0.192,0.017,0.304c-0.05-0.057-0.1,0.076-0.146-0.069
							c0.13,0.024-0.049-0.156,0.052-0.197c-0.017,0.022-0.043,0.02-0.077,0.01c-0.008-0.016-0.002-0.033,0.003-0.044
							c-0.151-0.101-0.015,0.19-0.132,0.224c-0.008-0.091-0.072-0.154-0.087-0.129c0.05-0.014,0.062,0.135,0.04,0.214
							c-0.094-0.042-0.065,0.075-0.105,0.079l0.053,0.018c0.013,0.089-0.026,0.089-0.065,0.132c-0.027-0.064,0.029-0.06,0.001-0.083
							c0,0.164-0.181-0.11-0.223,0.015c-0.06-0.043-0.068-0.152-0.117-0.179c-0.042,0.14-0.145-0.063-0.196,0.071
							c0.08,0.092,0.069,0.064,0.062,0.201l0.104-0.154l-0.015,0.207c0.042-0.021,0.055-0.116,0.089-0.112
							c-0.002,0.112-0.009,0.082,0.051,0.162c-0.131-0.131-0.062,0.154-0.178,0.081l-0.136-0.263
							c-0.169-0.056-0.107,0.235-0.273,0.246l0.07,0.019c0.047,0.108-0.069,0.06-0.083,0.122c-0.054-0.084-0.098-0.094-0.15-0.13
							c0.045,0.058-0.09,0.067,0.021,0.231l-0.131-0.059c-0.128,0.04,0.079,0.304-0.024,0.349c-0.048-0.101-0.135-0.118-0.128-0.226
							c-0.03,0.024-0.069,0.035-0.022,0.085c-0.061-0.028,0.013,0.165-0.079,0.122c0.02,0.042,0.087,0.113,0.055,0.14
							c-0.017-0.011-0.035-0.034-0.035-0.034c0.035,0.034,0.008,0.096,0.11,0.143c-0.299-0.117-0.172,0.253-0.442,0.17
							c-0.021,0.087-0.065,0.174-0.088,0.245c-0.023-0.02-0.042-0.025-0.026-0.032c-0.126,0.043,0.213,0.201,0.075,0.247
							c-0.166-0.027-0.048-0.096-0.117-0.094c-0.292-0.145-0.026,0.145-0.23,0.128l-0.008-0.026
							c-0.128,0.009,0.042,0.188-0.022,0.264c0,0-0.024-0.016-0.045-0.02c0.118,0.123,0.146,0.262,0.161,0.36
							c-0.113-0.066-0.052-0.061-0.18-0.085c0.006,0.046,0.2,0.056,0.212,0.142c-0.074,0.004-0.148,0.043-0.283,0.013l0.015-0.079
							c-0.183-0.012-0.024,0.103-0.065,0.134l-0.074-0.025c-0.011,0.129,0.18,0.174,0.131,0.293l0.062-0.001
							c0.18,0.103-0.115,0.038,0.02,0.131l-0.197-0.01c0.042,0.056,0.173,0.188,0.203,0.27c-0.142-0.058-0.207-0.164-0.286-0.239
							c-0.007,0.047-0.002,0.165,0.092,0.197c-0.017-0.021-0.063-0.049-0.031-0.064c0.149,0.075,0.218,0.15,0.206,0.238
							c-0.38-0.033-0.123,0.229-0.399,0.305c0.156,0.163-0.029,0.346,0.016,0.55c0.286-0.12,0.015,0.058,0.314-0.01
							c0.022,0.04,0.025,0.056,0.006,0.063l-0.14,0.171c-0.078,0.054-0.078-0.026-0.144-0.008c0.006,0.106-0.114,0.072-0.173,0.162
							c0.102-0.041,0.162-0.004,0.139,0.065l0.112-0.118c0.196,0.092-0.21,0.193-0.013,0.29l-0.105-0.016
							c0.078,0.055,0.076,0.284,0.346,0.248c-0.027,0.025-0.095,0.075-0.131,0.054c0.052,0.186,0.415,0.237,0.347,0.431l-0.07,0.027
							c0.035,0.019,0.146-0.022,0.103,0.054c-0.027,0.015-0.069,0.028-0.066,0.045c0.032,0.002,0.164-0.001,0.154,0.059
							l-0.093,0.017c0.031,0.2,0.333,0.094,0.455,0.167c-0.168,0.141-0.135,0.298-0.115,0.378l-0.024,0.02
							c0.141,0.165,0.397,0.108,0.588,0.158c-0.066,0.278,0.264,0.307,0.366,0.517c-0.007-0.05,0.087-0.148,0.125-0.151
							c0.019,0.062,0.174-0.078,0.078,0.1l-0.012-0.011c-0.057,0.19,0.047,0.199,0.115,0.227l0.115-0.238
							c0.041,0.419,0.495,0.015,0.498,0.374c0.059-0.047,0.113-0.034,0.17-0.097l-0.029,0.139c0.12,0.051,0.185,0.076,0.348,0.059
							l-0.043,0.098c0.094,0.019,0.147-0.395,0.221-0.396l0.014,0.213c0.147,0.024,0.317,0.177,0.455-0.026
							c0,0.031,0.001,0.093-0.023,0.104c0.072-0.001,0.307,0.11,0.235-0.173c0.03,0.184,0.164,0.006,0.219-0.097l0.018,0.14
							c0.027-0.194,0.016-0.242,0.09-0.317c0.025,0.012,0.048,0.102,0.01,0.076c0.09,0.048,0.018-0.144,0.121-0.099l-0.005,0.095
							c0.075-0.014,0.055-0.058,0.06-0.168c0.024-0.066,0.142-0.009,0.2,0.104c-0.018-0.074-0.02-0.183,0.035-0.162
							c0.024,0.042,0.021,0.074,0.019,0.09c0.159,0.044,0.094-0.23,0.23-0.145c0.023,0.04,0.039,0.058,0.051,0.066
							c-0.089,0.046-0.164,0.078-0.161,0.065c0.053,0.117,0.139,0.096,0.154,0.289c0.024-0.122,0.025-0.364,0.123-0.351
							c0.009,0.009,0.018,0.019,0.031,0.033l0,0.017c0.023,0.002,0.032-0.018,0.035-0.044c0.034,0.006,0.056,0.011,0.079-0.001
							c0.064,0.086,0.116,0,0.156-0.018c-0.081-0.115-0.022-0.123-0.13-0.194c0.011,0.005,0.002,0.018-0.018,0.036
							c-0.003,0.006-0.008,0.012-0.007,0.021l-0.004-0.012c-0.023,0.016-0.051,0.036-0.083,0.059
							c-0.009-0.078-0.014-0.144,0.067-0.101c-0.031-0.086-0.063-0.174-0.078-0.216c0.157,0.143,0.302,0.159,0.385,0.244
							c0.05-0.145,0.199-0.239,0.076-0.482c0.003-0.046,0.081,0.03,0.119,0.052c0.004,0.032-0.018,0.045,0,0.08
							c0.007-0.096,0.139-0.156,0.017-0.294c0.114-0.009,0.094,0.154,0.146,0.041l0.031,0.052c0.382-0.008-0.133-0.585,0.321-0.563
							c-0.027,0.004-0.042,0.004-0.07-0.01c0.272-0.184,0.163-0.572,0.473-0.755c0.075-0.063-0.034-0.108-0.106-0.181l0.149,0.025
							l-0.144-0.128c-0.099-0.137,0.436-0.115,0.206-0.318l-0.103,0.002c0.024-0.051-0.043-0.176,0.072-0.152
							c-0.018-0.008-0.103-0.03-0.049-0.045l0.079,0.008l-0.122-0.145c0.066-0.098,0.312,0.04,0.341-0.117
							c-0.025-0.063-0.216-0.169-0.271-0.146c-0.006,0.022-0.054,0.056-0.134,0.056l-0.036-0.048
							c-0.232-0.012-0.467-0.037-0.641,0.057l0.135,0.073l-0.115,0.017v-0.057c-0.11,0.027-0.019,0.051,0.044,0.078
							c-0.061,0.002-0.104,0.008-0.127,0.02l0.215,0.086c-0.092-0.001-0.178-0.047-0.231-0.008c0.1,0.042,0.206-0.011,0.269,0.05
							c-0.108,0.023-0.193,0.001-0.107,0.052c-0.06-0.003-0.097-0.016-0.122-0.034c0.068,0.043,0.023,0.093,0.144,0.131
							c-0.13,0.012,0.022,0.124-0.197,0.076c0.049,0.02,0.151,0.093,0.15,0.126c-0.239-0.116-0.049,0.11-0.317,0.021
							c0.217,0.104,0.061,0.169,0.164,0.283c-0.017-0.01-0.05-0.031-0.037-0.033c-0.029,0.033-0.1,0.02-0.148,0.028
							c0.186,0.077,0.195,0.152,0.288,0.234c-0.197-0.029-0.195-0.12-0.37-0.178c0.147,0.061,0.104,0.141,0.232,0.182
							c-0.125-0.015-0.067,0.007-0.223-0.047c0.217,0.114,0.021,0.049,0.14,0.146c-0.133-0.005-0.209-0.095-0.171-0.005
							C51.136,77.722,51.084,77.634,51.084,77.634z M50.375,78.936l-0.001-0.002c0.01-0.01,0.019-0.018,0.024-0.023
							C50.393,78.915,50.386,78.923,50.375,78.936z M50.262,79.003c0.016-0.003,0.034-0.012,0.052-0.023
							c0.026,0.041,0.045,0.088,0.032,0.092C50.337,79.039,50.297,79.03,50.262,79.003z M51.022,79.689
							c-0.015,0.031-0.037,0.013-0.056-0.01c0.01-0.009,0.021-0.021,0.033-0.039l-0.006-0.016
							C51.006,79.648,51.017,79.671,51.022,79.689z"/>
						<path fill="#C94248" d="M50.966,79.51c0.002-0.005,0-0.011,0.004-0.015c-0.012-0.007-0.022-0.013-0.031-0.019l0.016,0.042
							L50.966,79.51z"/>
						<path fill="#C94248" d="M51.074,73.676l-0.001-0.005c-0.001,0.006-0.002,0.012-0.007,0.021L51.074,73.676z"/>
						<polygon fill="#C94248" points="48.572,78.934 48.564,78.968 48.581,78.941 						"/>
						<path fill="#C94248" d="M51.302,74.592c-0.009,0.009-0.017,0.019-0.022,0.029C51.286,74.615,51.294,74.604,51.302,74.592z"/>
						<path fill="#C94248" d="M51.462,74.874l-0.023,0.065C51.454,74.908,51.46,74.889,51.462,74.874z"/>
						<path fill="#C94248" d="M51.513,75.125c0.022-0.009,0.04-0.016,0.056-0.022l0.001-0.001L51.513,75.125z"/>
						<path fill="#C94248" d="M48.38,73.875l-0.006,0.009C48.364,73.916,48.373,73.901,48.38,73.875z"/>
						<path fill="#C94248" d="M49.46,73.449c-0.016,0.024-0.031,0.048-0.045,0.063C49.435,73.524,49.45,73.528,49.46,73.449z"/>
						<polygon fill="#C94248" points="47.498,74.607 47.496,74.605 47.491,74.609 						"/>
						<path fill="#C94248" d="M49.361,73.503c0.019,0.03,0.036,0.026,0.054,0.009C49.399,73.5,49.38,73.483,49.361,73.503z"/>
						<path fill="#C94248" d="M51.73,76.136l-0.004,0.012c0.009-0.001,0.017-0.001,0.022-0.001L51.73,76.136z"/>
						<path fill="#C94248" d="M51.749,76.146l0.018,0.012C51.766,76.151,51.765,76.146,51.749,76.146z"/>
						<path fill="#C94248" d="M51.805,76.182l-0.038-0.023C51.768,76.167,51.764,76.179,51.805,76.182z"/>
						<path fill="#C94248" d="M51.759,75.81l-0.051,0.007C51.719,75.815,51.734,75.813,51.759,75.81z"/>
						<path fill="#C94248" d="M51.716,75.72c-0.005,0.025-0.089,0.079-0.049,0.103l0.041-0.006
							C51.629,75.819,51.806,75.722,51.716,75.72z"/>
						<path fill="#C94248" d="M52.188,75.098l-0.01,0.108c0.046-0.034,0.107-0.083,0.133-0.043
							C52.425,74.983,52.204,75.23,52.188,75.098z"/>
						<path fill="#C94248" d="M52.12,74.788c0.048,0.037,0.07-0.036,0.1-0.047C52.159,74.731,52.145,74.73,52.12,74.788z"/>
						<path fill="#C94248" d="M50.54,73.21l0.061-0.112C50.554,73.093,50.578,73.143,50.54,73.21z"/>
						<polygon fill="#C94248" points="49.927,73.684 49.933,73.77 49.986,73.663 						"/>
						<polygon fill="#C94248" points="49.944,72.732 49.967,72.721 49.884,72.744 						"/>
						<path fill="#C94248" d="M46.32,74.097l0.133,0.086C46.448,74.143,46.313,74.028,46.32,74.097z"/>
						<path fill="#C94248" d="M45.757,75.693c-0.083,0.002-0.135,0.042-0.063,0.084C45.71,75.741,45.771,75.716,45.757,75.693z"/>
						<polygon fill="#C94248" points="47.811,80.012 47.756,80.049 47.838,80.03 						"/>
					</g>
				</g>
			</g>
		</g>
	</g>
</g>
<g id="Layer_3">
	
		<text transform="matrix(1 0 0 1 18.623 17)" fill="#1B1464" stroke="#1B1464" stroke-width="0.5" stroke-miterlimit="10" font-family="'Latha-Bold'" font-size="12">DENUNCIAS</text>
</g>
</svg>
