<?xml version="1.0" encoding="utf-8"?>
<!-- Generator: Adobe Illustrator 16.0.0, SVG Export Plug-In . SVG Version: 6.00 Build 0)  -->
<!DOCTYPE svg PUBLIC "-//W3C//DTD SVG 1.1//EN" "http://www.w3.org/Graphics/SVG/1.1/DTD/svg11.dtd">
<svg version="1.1" xmlns="http://www.w3.org/2000/svg" xmlns:xlink="http://www.w3.org/1999/xlink" x="0px" y="0px" width="200px"
	 height="200px" viewBox="0 0 200 200" enable-background="new 0 0 200 200" xml:space="preserve">
<g id="fondo_1_">
	<path fill="#FFFFFF" stroke="#1B1464" stroke-width="3" stroke-miterlimit="10" d="M198.5,182.718
		c0,6.473-4.034,15.782-10.568,15.782H14.383c-6.534,0-12.883-9.31-12.883-15.782V11.815C1.5,5.343,7.849,1.5,14.383,1.5h173.549
		c6.534,0,10.568,3.843,10.568,10.315V182.718z"/>
</g>
<g id="dibujo">
	<path fill="#754C24" stroke="#000000" stroke-miterlimit="10" d="M144.5,165.5c0,6.627-5.373,12-12,12h-63c-6.627,0-12-5.373-12-12
		v-80c0-6.627,5.373-12,12-12h63c6.627,0,12,5.373,12,12V165.5z"/>
	<rect x="69" y="87" fill="#F2F2F2" width="65" height="78"/>
	<path fill="#754C24" stroke="#000000" stroke-miterlimit="10" d="M116.709,104.583c-2.937,0-6.292,9.917-6.292,9.917H123
		C123,114.5,119.645,104.583,116.709,104.583z"/>
	
		<ellipse fill="#C69C6D" stroke="#000000" stroke-width="0.5" stroke-miterlimit="10" cx="116.792" cy="98.875" rx="6.375" ry="5.625"/>
	<line fill="none" stroke="#000000" stroke-miterlimit="10" x1="74" y1="110.5" x2="98" y2="110.5"/>
	<line fill="none" stroke="#000000" stroke-miterlimit="10" x1="74" y1="94.5" x2="98" y2="94.5"/>
	<line fill="none" stroke="#000000" stroke-miterlimit="10" x1="74" y1="100.5" x2="98" y2="100.5"/>
	<line fill="none" stroke="#000000" stroke-miterlimit="10" x1="74" y1="105.5" x2="98" y2="105.5"/>
	<g id="ojos">
		<g>
			<g>
				<path d="M114.188,98.625c1.935,0,1.935-3,0-3S112.253,98.625,114.188,98.625L114.188,98.625z"/>
			</g>
		</g>
		<g>
			<g>
				<path d="M119.188,98.625c1.935,0,1.935-3,0-3S117.253,98.625,119.188,98.625L119.188,98.625z"/>
			</g>
		</g>
	</g>
</g>
<g id="Layer_5">
	<line fill="none" stroke="#000000" stroke-miterlimit="10" x1="74" y1="122.5" x2="128" y2="122.5"/>
	<line fill="none" stroke="#000000" stroke-miterlimit="10" x1="74" y1="127.5" x2="128" y2="127.5"/>
	<line fill="none" stroke="#000000" stroke-miterlimit="10" x1="74" y1="132.5" x2="128" y2="132.5"/>
	<line fill="none" stroke="#000000" stroke-miterlimit="10" x1="74" y1="137.5" x2="128" y2="137.5"/>
	<line fill="none" stroke="#000000" stroke-miterlimit="10" x1="74" y1="142.5" x2="128" y2="142.5"/>
	<line fill="none" stroke="#000000" stroke-miterlimit="10" x1="74" y1="147.5" x2="128" y2="147.5"/>
	<path fill="none" stroke="#000000" stroke-miterlimit="10" d="M128,152.5"/>
	<path fill="none" stroke="#000000" stroke-miterlimit="10" d="M74,152.5"/>
	<line fill="none" stroke="#000000" stroke-miterlimit="10" x1="74" y1="157.5" x2="99" y2="157.5"/>
	<line fill="none" stroke="#000000" stroke-miterlimit="10" x1="103" y1="157.5" x2="128" y2="157.5"/>
	<path fill="none" stroke="#0000FF" stroke-width="0.5" stroke-miterlimit="10" d="M75.375,156.41
		c0.211,0.035,0.947-0.22,1.078-0.433c0.141-0.228-0.048-0.757-0.07-0.993c-0.038-0.419-0.143-1.121,0.197-1.417
		c1.079-0.939,1.264,1.34,1.542,1.847c0.114,0.207,0.357,0.532,0.575,0.615c0.129,0.05,0.962,0.087,1.091,0
		c0.462-0.313-0.066-1.219,0.004-1.662c0.072-0.454,0.717-1.149,1.227-0.907c0.413,0.196,0.446,0.938,0.383,1.319
		c0.417,0.267,0.798,0.439,1.296,0.176c0.797-0.421-0.262-1.037,0.27-1.586c0.813-0.841,1.035,1.18,1.032,1.678
		c-0.004,0.598-0.358,1.309,0.358,1.587c0.325,0.127,1.346,0.263,1.675,0.095c0.405-0.206,0.387-0.773,0.417-1.17
		c0.04-0.541,0.195-1.307,0.966-1.109c0.493,0.126,1.245,1.849,1.834,1.502"/>
	<path fill="none" stroke="#0000FF" stroke-width="0.5" stroke-miterlimit="10" d="M103.71,156.451
		c0.704,0.031,1.284-0.353,1.441-1.085c0.048-0.221,0.05-0.534,0.012-0.759c-0.036-0.213-0.275-0.493-0.165-0.725
		c0.11-0.229,1.185-0.365,1.353-0.155c0.142,0.177,0.022,0.877,0.023,1.067c0.005,0.698,0.061,1.559,0.688,2.026
		c0.332,0.247,0.903,0.289,1.179-0.104c0.321-0.459,0.006-1.131-0.167-1.568c-0.165-0.418-0.539-1.032-0.503-1.494
		c0.022-0.289,0.465-0.774,0.806-0.709c0.367,0.071,0.645,1.289,0.749,1.557c0.273,0.705,0.596,1.382,0.899,2.073
		c0.125,0.283,0.281,0.904,0.53,1.125c1.101,0.982,3.918-0.803,4.043-2.057c0.068-0.681-0.508-1.133-0.798-1.69
		c-0.26-0.501-0.167-0.872-0.27-1.39c-0.105-0.537-0.612-1.016-0.955-1.407c-0.375-0.429-0.432-0.532-0.97-0.538
		c-0.705-0.007-1.341,0.039-1.994,0.354c-0.416,0.201-1.539,0.802-1.536,1.368c0.002,0.483,1.259,0.691,1.566,0.784
		c2.084,0.626,4.07,0.791,6.245,0.787c0.697-0.001,1.329-0.026,2.004-0.189c0.227-0.055,0.381-0.104,0.608-0.104
		c0.692,0.003,1.218,0.413,1.536,1.013c0.21,0.397,0.281,0.303-0.122,0.563c-0.348,0.225-0.88,0.32-1.276,0.421
		c-0.599,0.151-1.209,0.27-1.826,0.167c-0.959-0.159-1.746-0.84-2.694-1.067c0.742-0.463,2.414-0.225,3.265-0.175
		c1.386,0.08,2.63,0.785,4.01,0.835c0.488,0.018,1.237-0.002,1.651-0.298"/>
	<g>
		<g>
			<g>
				<g>
					<g>
						<path fill="#C94248" d="M102.667,155.376c0.043,0.018,0.143,0.007,0.117-0.038l-0.168-0.031L102.667,155.376z"/>
						<path fill="#C94248" d="M102.943,155.058c-0.086-0.052-0.232-0.103-0.381-0.057c0.164,0.041,0.099,0.057,0.294,0.105
							c0.023,0.046-0.045,0.083-0.107,0.077c0.044,0.015-0.029,0.071,0.077,0.095c0.122-0.063,0.12-0.144,0.007-0.218
							C102.867,155.041,102.912,155.056,102.943,155.058z"/>
						<path fill="#C94248" d="M101.025,150.859l0.012,0.036C101.037,150.881,101.033,150.87,101.025,150.859z"/>
						<path fill="#C94248" d="M98.244,149.716c0.023-0.002,0.034-0.017,0.037-0.032C98.258,149.692,98.24,149.701,98.244,149.716z"
							/>
						<path fill="#C94248" d="M97.715,149.512c0.013,0.003,0.021,0.005,0.032,0.008C97.734,149.506,97.722,149.498,97.715,149.512z"
							/>
						<path fill="#C94248" d="M101.025,150.859l-0.03-0.095C100.958,150.805,101.003,150.824,101.025,150.859z"/>
						<path fill="#C94248" d="M102.488,154.487c0.01,0.014,0.025,0.023,0.047,0.031l-0.021-0.033L102.488,154.487z"/>
						<path fill="#C94248" d="M102.071,151.711l0.016,0.02c0.019-0.007,0.041-0.016,0.065-0.025L102.071,151.711z"/>
						<path fill="#C94248" d="M102.668,152.568c-0.006-0.024-0.134,0.035-0.191,0.057c0.057-0.016,0.089-0.014,0.108-0.001
							C102.608,152.612,102.635,152.595,102.668,152.568z"/>
						<path fill="#C94248" d="M103.009,154.17l0.027,0.023L103.009,154.17z"/>
						<path fill="#C94248" d="M101.594,151.134c0.013-0.017,0.022-0.032,0.027-0.043
							C101.609,151.104,101.601,151.118,101.594,151.134z"/>
						<path fill="#C94248" d="M102.236,156.372c0.01,0.002,0.016,0.004,0.024,0.005
							C102.248,156.369,102.239,156.366,102.236,156.372z"/>
						<polygon fill="#C94248" points="103.036,155.376 103.042,155.392 103.121,155.396 						"/>
						<path fill="#C94248" d="M96.686,149.444l0.004,0.001C96.713,149.424,96.699,149.429,96.686,149.444z"/>
						<path fill="#C94248" d="M92.292,156.602c0.095-0.121,0.204,0.127,0.298-0.047C92.538,156.581,92.344,156.462,92.292,156.602z"
							/>
						<path fill="#C94248" d="M102.505,154.461c-0.003-0.013-0.006-0.024-0.005-0.037
							C102.497,154.441,102.498,154.453,102.505,154.461z"/>
						<polygon fill="#C94248" points="92.591,156.555 92.592,156.555 92.601,156.537 						"/>
						<path fill="#C94248" d="M94.592,150.488c0.018,0.017,0.036,0.026,0.054,0.034C94.637,150.512,94.623,150.501,94.592,150.488z"
							/>
						<path fill="#C94248" d="M96.198,149.898l-0.045-0.005C96.173,149.9,96.187,149.9,96.198,149.898z"/>
						<path fill="#C94248" d="M94.053,151.217c-0.025,0.007-0.044-0.002-0.054,0.032l0.02,0.006
							C94.013,151.233,94.018,151.218,94.053,151.217z"/>
						<polygon fill="#C94248" points="93.478,151.909 93.511,151.913 93.522,151.887 						"/>
						<path fill="#C94248" d="M101.341,158.42c0.041,0.012,0.082,0.03,0.121,0.051C101.376,158.418,101.416,158.311,101.341,158.42z
							"/>
						<path fill="#C94248" d="M102.566,154.474c-0.035,0.001-0.054-0.002-0.062-0.013l0.009,0.024
							C102.535,154.484,102.555,154.48,102.566,154.474z"/>
						<path fill="#C94248" d="M94.815,152.019c-0.002-0.003-0.101,0.062-0.096,0.066C94.747,152.066,94.783,152.044,94.815,152.019z
							"/>
						<path fill="#C94248" d="M96.602,159.962l0.031-0.008C96.624,159.948,96.613,159.949,96.602,159.962z"/>
						<path fill="#C94248" d="M94.524,152.371c-0.052-0.016-0.088-0.016-0.117-0.009c0.005,0.011,0.009,0.021,0.02,0.033
							L94.524,152.371z"/>
						<path fill="#C94248" d="M101.463,158.471L101.463,158.471L101.463,158.471z"/>
						<path fill="#C94248" d="M101.607,157.644c-0.053,0.095,0.135,0.134,0.217,0.207c-0.018,0.148-0.146-0.012-0.248-0.02
							c0.002,0.095,0.126,0.25,0.077,0.295c-0.029-0.013-0.046-0.01-0.068-0.042c0.065,0.152-0.158,0.209-0.077,0.404
							c-0.018-0.004-0.032-0.01-0.045-0.018c0.084,0.044,0.16,0.099,0.211,0.143c-0.031,0.045,0.028,0.153-0.078,0.094
							c0.023-0.024-0.014-0.057-0.033-0.093l0.006,0.077c-0.166-0.069,0.001-0.098-0.1-0.178c-0.021,0.118,0.008,0.313-0.081,0.348
							c-0.137-0.1,0.076-0.19-0.104-0.203l0.127-0.058c-0.266-0.096,0.061-0.047-0.214-0.161c-0.135,0.092-0.043,0.198-0.179,0.289
							c0.04,0.089,0.11,0.089,0.149,0.178c-0.063,0.277-0.436-0.188-0.406,0.085c0.043,0.112,0.168,0.287,0.001,0.282l-0.091-0.175
							c-0.128,0.087,0.105,0.274-0.101,0.283c-0.023-0.08,0.055-0.133,0.023-0.136c-0.172-0.05,0.009,0.137-0.055,0.192
							l-0.113-0.126c-0.116,0.116-0.219,0.299-0.368,0.425c-0.015-0.05-0.014-0.112-0.077-0.136
							c-0.157,0.201-0.443,0.23-0.689,0.181l-0.032,0.164c-0.02,0.005-0.056-0.052-0.045-0.085c-0.098-0.026,0.025,0.09,0.003,0.157
							c-0.045,0.026-0.088-0.06-0.071-0.111c-0.103,0.163-0.355,0.414-0.552,0.252l0.024-0.046c-0.132-0.047-0.1,0.312-0.24,0.188
							l0.021-0.028c-0.281-0.031-0.597,0.147-0.796-0.124c-0.057,0.206-0.259-0.123-0.312,0.168c-0.14-0.16-0.087-0.209-0.284-0.325
							c-0.053-0.019-0.122,0.155-0.201,0.165l0.035-0.15l-0.135,0.125l-0.001-0.194l-0.075,0.017
							c0.022,0.018,0.035,0.085,0.019,0.126c-0.125,0.032-0.218-0.184-0.191-0.259l-0.285,0.047c0.03-0.056,0.078-0.063,0.124-0.09
							c-0.187,0.105,0.04-0.157-0.13-0.06c0.001,0.037-0.045,0.081-0.061,0.109c-0.017-0.115-0.132-0.186-0.24-0.201l0.066-0.085
							c-0.143-0.113-0.357-0.145-0.539-0.247c0.036,0.076-0.082,0.221-0.148,0.204l0.075-0.149
							c-0.089,0.055,0.014,0.094-0.121,0.138c-0.051-0.068,0.069-0.185,0.133-0.197l-0.104-0.018
							c0.025-0.043,0.057-0.049,0.099-0.095c-0.091,0.054-0.019-0.233-0.17-0.133l0.027-0.04c-0.151-0.134-0.26-0.152-0.394-0.256
							c-0.103,0.096-0.135,0.035-0.246,0.067c-0.048-0.134-0.049-0.315-0.151-0.426c-0.122-0.042-0.113,0.048-0.21,0.06
							c0.097-0.084-0.008-0.196,0.116-0.188c-0.127-0.133-0.178-0.155-0.366-0.316c-0.034,0.049-0.04,0.087-0.084,0.096
							c-0.039-0.028,0.001-0.115,0.057-0.141l0.017,0.004c-0.285-0.162,0.036-0.685-0.256-0.776l0.016,0.007l-0.192-0.162
							c-0.007-0.103,0.108,0.027,0.163-0.067c-0.269-0.161-0.073-0.355-0.267-0.505c0.342-0.209-0.077-0.52,0.138-0.739
							l-0.088,0.016c-0.092-0.045,0.045-0.063,0.062-0.101c-0.069,0.008-0.074,0.058-0.126,0.028
							c-0.097-0.215-0.019-0.444,0.056-0.663c0.091-0.216,0.146-0.434,0.261-0.625c0.068-0.142-0.42-0.198-0.155-0.343l0.142,0.101
							c-0.049-0.181,0-0.344,0.05-0.501c0.063-0.153,0.162-0.286,0.156-0.47c0.025,0.034,0.069,0.058,0.054,0.084
							c0.138-0.004,0.118-0.215,0.034-0.267c0.033-0.039,0.083,0.033,0.14,0.031c0.09-0.022-0.055-0.23,0.063-0.199
							c0.019,0.005,0.024,0.037,0.026,0.053c-0.039-0.076,0.133-0.153-0.011-0.2c0.129-0.056,0.094-0.217,0.219-0.243
							c-0.081-0.146,0.184-0.114,0.03-0.272c0.17,0.157,0.257-0.051,0.243-0.173c0.03,0.064,0.101,0.007,0.146,0.093
							c0.062-0.057,0.092-0.138,0.001-0.213c0.3,0.1,0.105-0.378,0.394-0.17c0.101-0.282,0.29-0.442,0.467-0.614
							c0.104,0.201-0.217,0.149-0.083,0.345c0.135-0.183,0.161-0.42,0.38-0.484c0.063-0.001,0.013,0.105,0.014,0.149
							c0.149-0.206,0.403-0.122,0.545-0.312c0.006,0.02-0.007,0.048-0.021,0.07c0.035-0.019,0.095,0.004,0.061-0.093l-0.028,0.039
							c-0.107-0.122,0.062-0.348,0.051-0.427c0.012,0.306,0.215,0.007,0.203,0.401c0.019-0.026,0.039-0.084,0.017-0.149
							c0.042,0.008,0.061,0.043,0.043,0.131c0.118-0.1,0.05-0.188,0.179-0.201c0.009,0.049-0.014,0.07-0.015,0.129
							c0.044-0.102,0.096-0.203,0.212-0.174c-0.002,0.031,0.016,0.068-0.016,0.07c0.179-0.033,0.296-0.29,0.514-0.22
							c-0.055,0.223,0.073,0.063,0.085,0.248c0-0.006,0.108-0.059,0.108-0.054l-0.043-0.096c0.096,0.015,0.188-0.112,0.271-0.042
							l-0.077,0.069l0.184-0.016l-0.099-0.082c0.108-0.085,0.005-0.236,0.138-0.17c-0.03,0.016,0.104,0.013,0.143,0.128h0
							c0.057-0.054,0.119-0.11,0.188-0.056c0.01,0.061-0.048,0.201-0.042,0.242c0.073-0.144,0.239-0.033,0.332-0.163
							c-0.029,0.031-0.051,0.127-0.049,0.148l0.067-0.11c0.036,0.054,0.037,0.075,0.011,0.148c0.125,0.065,0.016-0.244,0.149-0.093
							c-0.015,0.006-0.015,0.026-0.045,0.036c0.142,0.103,0.331,0.023,0.458,0.13c-0.024,0.189-0.142,0.003-0.147,0.168
							c0.106,0.016,0.232-0.003,0.357-0.012c0.117,0.01,0.231,0.036,0.314,0.108l-0.025-0.039c0.15-0.219,0.077,0.195,0.23,0.139
							c-0.033,0.004-0.104,0.11-0.083,0.088c0.097,0.114,0.298,0.071,0.521,0.146l-0.061,0.037c0.028,0.105,0.149,0.176,0.198,0.261
							c0.064-0.035,0.098,0.009,0.137-0.088c-0.048,0.471,0.58,0.206,0.488,0.646c-0.02-0.023-0.089-0.018-0.074,0.002l0.181,0.128
							c0.079-0.085,0.037-0.065,0.078-0.158c0.07-0.021,0.151-0.005,0.186,0.04c-0.123-0.033-0.145,0.115-0.171,0.187
							c0.024-0.027,0.064-0.039,0.091-0.063c-0.094,0.213,0.198-0.124,0.187,0.085l-0.055,0.028
							c0.062,0.028,0.163,0.027,0.189,0.089c-0.096,0.095-0.092-0.016-0.186,0.043c0.065,0.06,0.316,0.006,0.239,0.152
							c-0.05-0.015-0.075-0.063-0.124-0.077c-0.093,0.162-0.055,0.148-0.047,0.219v-0.008l0.006,0.167l0.021-0.055
							c0.354-0.071,0.157,0.168,0.432,0.2c-0.263-0.037-0.123,0.034-0.266,0.09c-0.02,0.052-0.036,0.121-0.083,0.125
							c0.144,0.01-0.035,0.139,0.173,0.153c-0.043,0.022,0.03,0.066-0.091,0.099c0.066,0.067,0.073-0.052,0.129-0.066
							c0.206,0.073-0.098,0.376,0.178,0.493c0.14,0.14,0.309,0.131,0.437,0.276c-0.06,0.071-0.187-0.005-0.187-0.005
							c-0.048,0.103-0.002,0.159,0.055,0.234c-0.044-0.009-0.077,0.016-0.129,0.05c0.019,0.063,0.179,0.016,0.116,0.115
							c-0.055-0.007-0.143-0.013-0.199-0.035c0.051,0.069,0.148,0.133,0.2,0.21c-0.083,0.032-0.133-0.033-0.19-0.054
							c0.046,0.084,0.099,0.223,0.235,0.24l0.042-0.063c0.01,0.033-0.113,0.027-0.141,0.006c-0.112-0.066,0.036-0.117,0.084-0.128
							l0.036,0.055c0.278-0.095-0.068-0.234-0.063-0.351l0.21,0.016l-0.182-0.095c0.051-0.035,0.163-0.076,0.199-0.021
							c0.095-0.108-0.088-0.062,0.006-0.159c0.016-0.012,0.026-0.01,0.036-0.004l-0.085-0.07c0.048,0.006,0.14-0.047,0.126,0.012
							c0.07-0.183-0.224-0.207-0.089-0.305l0.017,0.01c-0.13-0.191-0.154,0.02-0.37-0.081l0.327-0.221l-0.151,0.027
							c-0.001-0.022-0.003-0.069,0.058-0.082c-0.123-0.045-0.059,0.036-0.165,0.022c0.104-0.154-0.148-0.255,0.056-0.366
							c-0.125,0.011-0.035,0.126-0.162,0.056c0.225-0.134-0.102-0.1-0.037-0.235c0.136-0.031,0.115,0.085,0.178-0.057
							c-0.233,0.045-0.046-0.197-0.125-0.256c-0.162,0.083-0.152-0.128-0.27-0.223c0.067-0.03-0.05-0.282-0.09-0.422l0.027-0.014
							c-0.166,0.085-0.222-0.042-0.313-0.096c0.09-0.065,0.135-0.078,0.208-0.064l-0.061-0.075c-0.06,0.019-0.103,0.015-0.156-0.02
							l0.12-0.068c-0.086-0.098-0.28-0.096-0.314-0.285c-0.099,0.085-0.179,0.337-0.349,0.278c0.045-0.052,0.125-0.139,0.179-0.13
							c-0.018-0.003-0.08,0.007-0.08-0.032l0.134-0.037c-0.019-0.084-0.099,0.043-0.134-0.002c0.071-0.069,0.018-0.078,0.079-0.128
							c0.019,0.003,0.01,0.063,0.054,0.05c-0.037-0.056-0.057-0.15-0.025-0.223c-0.034,0.044-0.092,0.096-0.138,0.073
							c-0.1-0.077,0.049-0.115,0.025-0.202c-0.069,0.03-0.084-0.077-0.183,0.033c-0.027-0.024,0.013-0.081,0.027-0.121
							c-0.093,0.006-0.247-0.188-0.287-0.016l0.007,0.02l-0.013-0.002h0.001h-0.001c-0.234-0.032-0.305-0.323-0.524-0.377
							l0.025-0.042c-0.138-0.014-0.262-0.11-0.387-0.06c-0.032-0.018-0.036-0.124,0.004-0.169c-0.103-0.01-0.128,0.022-0.225-0.102
							c0.126-0.045,0.002-0.09,0.117-0.018c-0.095-0.097-0.101-0.168-0.279-0.089c0.091-0.103-0.036-0.18-0.107-0.163l0.055,0.113
							c-0.071-0.004-0.124-0.033-0.179-0.063l0.085-0.147c-0.208-0.274-0.544,0.174-0.664-0.194
							c-0.091,0.102,0.125,0.104,0.035,0.227c-0.109-0.043-0.196-0.286-0.236-0.293c-0.159-0.11-0.192,0.223-0.355,0.143
							c0.017,0.061,0.018,0.221-0.109,0.263c-0.111-0.033-0.127-0.263-0.048-0.303c0.029-0.002,0.042,0.019,0.039,0.038
							c0.041-0.018,0.095-0.037,0.052-0.106l-0.021,0.058c-0.055-0.066-0.226-0.077-0.181-0.171
							c-0.097,0.048-0.043,0.094,0.023,0.131c-0.154-0.095-0.245-0.044-0.407-0.075c0.026,0.03,0.051,0.098,0.025,0.1
							c-0.237-0.05-0.099,0.123-0.252,0.165c-0.095-0.081,0.016-0.219-0.137-0.127c-0.104-0.051-0.037-0.154,0-0.207
							c-0.138,0.13-0.291-0.045-0.384-0.056l0.074-0.056c-0.044,0.033-0.084,0.037-0.125,0.041l0.065,0.112
							c-0.05-0.016-0.09-0.011-0.097-0.06c-0.035,0.082,0.069,0.19-0.004,0.306c-0.072-0.055-0.167,0.082-0.22-0.058
							c0.198,0.009-0.057-0.158,0.103-0.207c-0.028,0.024-0.069,0.021-0.118,0.018c-0.011-0.016,0-0.034,0.01-0.047
							c-0.215-0.08-0.044,0.2-0.228,0.255c0.001-0.094-0.087-0.148-0.113-0.121c0.077-0.022,0.075,0.132,0.027,0.219
							c-0.137-0.028-0.111,0.09-0.173,0.102l0.079,0.009c0.003,0.092-0.056,0.099-0.125,0.151c-0.03-0.063,0.056-0.068,0.018-0.088
							c-0.034,0.175-0.256-0.086-0.343,0.054c-0.082-0.036-0.07-0.152-0.138-0.172c-0.093,0.159-0.197-0.036-0.298,0.124
							c0.094,0.084,0.085,0.055,0.043,0.212l0.186-0.2l-0.067,0.236c0.066-0.035,0.107-0.146,0.155-0.15
							c-0.027,0.127-0.031,0.095,0.041,0.168c-0.165-0.112-0.128,0.191-0.283,0.141l-0.135-0.263
							c-0.228-0.022-0.211,0.294-0.453,0.348l0.094,0.005c0.037,0.114-0.116,0.086-0.155,0.163c-0.052-0.087-0.109-0.085-0.17-0.113
							c0.046,0.057-0.139,0.109-0.033,0.279l-0.161-0.033c-0.181,0.085,0.019,0.355-0.136,0.444
							c-0.033-0.113-0.143-0.11-0.102-0.248c-0.047,0.04-0.102,0.063-0.055,0.114c-0.071-0.021-0.035,0.205-0.142,0.176
							c0.014,0.049,0.076,0.12,0.028,0.166c-0.019-0.008-0.035-0.034-0.035-0.034c0.035,0.034-0.016,0.127,0.1,0.156
							c-0.342-0.063-0.292,0.405-0.6,0.37c-0.049,0.127-0.137,0.257-0.178,0.369c-0.021-0.021-0.042-0.026-0.022-0.04
							c-0.155,0.098,0.196,0.235,0.025,0.343c-0.183,0.005-0.031-0.129-0.11-0.106c-0.296-0.136-0.065,0.221-0.291,0.245
							l-0.003-0.036c-0.145,0.04,0.001,0.266-0.09,0.394c0,0-0.023-0.018-0.045-0.02c0.097,0.158,0.11,0.373,0.107,0.525
							c-0.108-0.084-0.045-0.086-0.176-0.1c-0.001,0.069,0.202,0.048,0.2,0.184c-0.078,0.019-0.164,0.093-0.3,0.068l0.029-0.125
							c-0.189,0.012-0.042,0.161-0.09,0.217l-0.073-0.028c-0.031,0.199,0.159,0.245,0.088,0.44l0.063-0.01
							c0.174,0.146-0.119,0.074,0.011,0.21l-0.198,0.003c0.039,0.084,0.164,0.288,0.188,0.42c-0.139-0.087-0.198-0.253-0.274-0.365
							c-0.009,0.076-0.011,0.261,0.083,0.309c-0.016-0.032-0.061-0.075-0.028-0.102c0.146,0.109,0.21,0.23,0.193,0.374
							c-0.38-0.044-0.141,0.375-0.404,0.491c0.166,0.262-0.01,0.542,0.045,0.861c0.282-0.161,0.018,0.091,0.317,0.017
							c0.023,0.067,0.031,0.093,0.013,0.103l-0.117,0.249c-0.072,0.072-0.085-0.052-0.15-0.029c0.023,0.163-0.107,0.096-0.155,0.223
							c0.1-0.049,0.167,0.016,0.154,0.117l0.099-0.164c0.22,0.171-0.19,0.263,0.031,0.438l-0.113-0.04
							c0.092,0.095,0.116,0.438,0.412,0.435c-0.023,0.032-0.087,0.091-0.131,0.054c0.099,0.276,0.52,0.438,0.488,0.703l-0.074,0.02
							c0.043,0.036,0.162,0.007,0.128,0.104c-0.027,0.014-0.073,0.021-0.065,0.046c0.037,0.011,0.194,0.039,0.2,0.118h-0.105
							c0.092,0.279,0.427,0.215,0.601,0.353c-0.169,0.141-0.086,0.359-0.042,0.471l-0.025,0.019
							c0.228,0.241,0.546,0.237,0.818,0.357c-0.022,0.331,0.449,0.434,0.644,0.696c-0.021-0.058,0.089-0.146,0.145-0.141
							c0.041,0.074,0.234-0.043,0.135,0.133l-0.02-0.016c-0.041,0.198,0.106,0.238,0.212,0.277l0.122-0.236
							c0.142,0.452,0.758,0.101,0.815,0.479c0.082-0.038,0.167-0.019,0.25-0.081l-0.031,0.139c0.191,0.059,0.29,0.088,0.54,0.08
							l-0.06,0.096c0.143,0.023,0.209-0.389,0.328-0.385l0.028,0.215c0.232,0.041,0.489,0.171,0.711-0.037
							c-0.001,0.031-0.003,0.093-0.041,0.105c0.111-0.006,0.462,0.094,0.375-0.188c0.031,0.182,0.252,0,0.352-0.115l0.012,0.142
							c0.063-0.206,0.054-0.254,0.18-0.347c0.038,0.008,0.059,0.099,0.005,0.078c0.131,0.035,0.049-0.154,0.203-0.126l-0.023,0.102
							c0.117-0.027,0.094-0.07,0.122-0.188c0.051-0.076,0.222-0.036,0.286,0.075c-0.012-0.077,0.01-0.192,0.089-0.181
							c0.028,0.041,0.015,0.076,0.009,0.094c0.229,0.021,0.191-0.281,0.373-0.219c0.024,0.04,0.042,0.056,0.059,0.063
							c-0.141,0.076-0.256,0.132-0.25,0.116c0.053,0.117,0.18,0.072,0.163,0.285c0.057-0.143,0.115-0.417,0.253-0.426
							c0.011,0.008,0.022,0.016,0.036,0.03l-0.004,0.019c0.032-0.003,0.049-0.026,0.06-0.058c0.046-0.002,0.077-0.002,0.113-0.02
							c0.068,0.083,0.163-0.028,0.223-0.057c-0.082-0.114,0.003-0.138-0.129-0.195c0.014,0.004-0.001,0.021-0.035,0.047
							c-0.006,0.008-0.015,0.016-0.016,0.025l-0.002-0.013c-0.036,0.023-0.082,0.054-0.134,0.088
							c0.008-0.087,0.02-0.163,0.124-0.132c-0.02-0.093-0.04-0.188-0.05-0.233c0.187,0.13,0.38,0.106,0.47,0.185
							c0.104-0.191,0.328-0.351,0.239-0.623c0.019-0.061,0.1,0.014,0.144,0.03c-0.006,0.04-0.037,0.063-0.024,0.102
							c0.037-0.122,0.23-0.236,0.116-0.381c0.146-0.049,0.075,0.179,0.171,0.009l0.025,0.059c0.468-0.118,0.011-0.763,0.558-0.865
							c-0.032,0.013-0.051,0.018-0.08,0.006c0.185-0.158,0.26-0.398,0.346-0.621c0.095-0.223,0.178-0.437,0.355-0.623
							c0.088-0.11-0.02-0.161-0.083-0.263l0.153,0.016l-0.129-0.178c-0.082-0.208,0.481-0.236,0.255-0.533l-0.104,0.015
							c0.027-0.084-0.032-0.281,0.082-0.252c-0.018-0.012-0.103-0.041-0.047-0.069l0.079,0.007l-0.114-0.226
							c0.073-0.162,0.311,0.049,0.35-0.201c-0.022-0.097-0.206-0.267-0.263-0.231c-0.007,0.036-0.058,0.092-0.137,0.093l-0.034-0.08
							c-0.231-0.018-0.464-0.066-0.645,0.104l0.13,0.127l-0.117,0.034l0.004-0.103c-0.112,0.054-0.022,0.093,0.038,0.139
							c-0.061,0.006-0.104,0.021-0.129,0.042l0.21,0.139c-0.093,0.006-0.176-0.07-0.233,0.004c0.098,0.067,0.209-0.034,0.268,0.067
							c-0.111,0.049-0.195,0.02-0.112,0.101c-0.06,0.002-0.097-0.019-0.12-0.048c0.065,0.069,0.016,0.163,0.135,0.215
							c-0.132,0.04,0.014,0.216-0.209,0.164c0.046,0.028,0.138,0.139,0.13,0.196c-0.227-0.16-0.076,0.198-0.341,0.098
							c0.207,0.136,0.026,0.285,0.113,0.457c-0.016-0.014-0.047-0.041-0.033-0.048c-0.039,0.065-0.111,0.061-0.166,0.09
							c0.187,0.083,0.173,0.204,0.252,0.312c-0.217,0.007-0.184-0.144-0.364-0.188c0.148,0.058,0.071,0.203,0.205,0.231
							c-0.139,0.014-0.079,0.031-0.242-0.008c0.214,0.119,0.008,0.075,0.114,0.195c-0.154,0.035-0.215-0.084-0.199,0.05
							C101.641,157.771,101.607,157.644,101.607,157.644z M100.08,159.778l-0.001-0.003c0.019-0.015,0.035-0.026,0.045-0.035
							C100.115,159.748,100.102,159.759,100.08,159.778z M99.881,159.895c0.027-0.009,0.058-0.025,0.089-0.045
							c0.029,0.039,0.045,0.088,0.023,0.098C99.989,159.912,99.929,159.914,99.881,159.895z M100.824,160.477
							c-0.028,0.039-0.055,0.023-0.076,0.002c0.017-0.013,0.035-0.028,0.058-0.053l-0.005-0.017
							C100.813,160.434,100.821,160.457,100.824,160.477z"/>
						<path fill="#C94248" d="M100.792,160.283c0.004-0.006,0.003-0.013,0.01-0.018c-0.015-0.006-0.028-0.01-0.039-0.014
							l0.011,0.044L100.792,160.283z"/>
						<path fill="#C94248" d="M101.039,150.901l-0.002-0.006c0,0.008,0,0.015-0.004,0.023L101.039,150.901z"/>
						<polygon fill="#C94248" points="96.852,159.973 96.843,160.007 96.869,159.982 						"/>
						<path fill="#C94248" d="M101.649,152.209c-0.008,0.01-0.015,0.021-0.018,0.035
							C101.639,152.238,101.645,152.225,101.649,152.209z"/>
						<path fill="#C94248" d="M101.944,152.685l-0.007,0.096C101.946,152.735,101.946,152.706,101.944,152.685z"/>
						<path fill="#C94248" d="M102.079,153.098c0.024-0.008,0.042-0.014,0.058-0.019l0.001-0.002L102.079,153.098z"/>
						<path fill="#C94248" d="M96.523,150.781l-0.013,0.012C96.484,150.83,96.504,150.812,96.523,150.781z"/>
						<path fill="#C94248" d="M98.453,150.274c-0.025,0.023-0.049,0.046-0.073,0.06C98.415,150.349,98.441,150.354,98.453,150.274z"
							/>
						<polygon fill="#C94248" points="94.827,152.012 94.826,152.01 94.815,152.019 						"/>
						<path fill="#C94248" d="M98.286,150.321c0.033,0.031,0.063,0.029,0.094,0.013C98.351,150.321,98.317,150.303,98.286,150.321z"
							/>
						<polygon fill="#C94248" points="102.511,154.863 102.507,154.884 102.529,154.884 						"/>
						<path fill="#C94248" d="M102.529,154.884l0.019,0.021C102.547,154.895,102.545,154.886,102.529,154.884z"/>
						<path fill="#C94248" d="M102.588,154.949l-0.04-0.044C102.549,154.921,102.547,154.941,102.588,154.949z"/>
						<path fill="#C94248" d="M102.509,154.298l-0.052,0.004C102.469,154.303,102.485,154.302,102.509,154.298z"/>
						<path fill="#C94248" d="M102.445,154.138c0.001,0.042-0.076,0.121-0.029,0.168l0.041-0.004
							C102.376,154.294,102.54,154.155,102.445,154.138z"/>
						<path fill="#C94248" d="M102.83,153.222l0.008,0.168c0.043-0.045,0.101-0.107,0.134-0.04
							C103.064,153.095,102.87,153.432,102.83,153.222z"/>
						<path fill="#C94248" d="M102.678,152.742c0.063,0.066,0.07-0.036,0.1-0.046C102.707,152.668,102.69,152.662,102.678,152.742z"
							/>
						<path fill="#C94248" d="M100.141,150.209l0.063-0.111C100.136,150.081,100.182,150.143,100.141,150.209z"/>
						<polygon fill="#C94248" points="99.283,150.59 99.313,150.683 99.376,150.581 						"/>
						<polygon fill="#C94248" points="99.151,149.591 99.185,149.582 99.062,149.592 						"/>
						<path fill="#C94248" d="M93.478,151.708l0.138,0.079C93.622,151.734,93.489,151.616,93.478,151.708z"/>
						<path fill="#C94248" d="M92.501,154.203c-0.087,0.012-0.14,0.08-0.07,0.139C92.45,154.284,92.511,154.235,92.501,154.203z"/>
						<polygon fill="#C94248" points="95.838,160.968 95.765,160.999 95.883,160.992 						"/>
					</g>
				</g>
			</g>
		</g>
	</g>
</g>
<g id="texto">
	<text transform="matrix(1 0 0 1 69.6558 28)"><tspan x="0" y="0" fill="#1B1464" stroke="#1B1464" stroke-width="0.5" stroke-miterlimit="10" font-family="'Latha-Bold'" font-size="18">TOMAR</tspan><tspan x="-13.57" y="21.6" fill="#1B1464" stroke="#1B1464" stroke-width="0.5" stroke-miterlimit="10" font-family="'Latha-Bold'" font-size="18">DENUNCIA</tspan></text>
</g>
</svg>
